<svg xmlns="http://www.w3.org/2000/svg" xmlns:xlink="http://www.w3.org/1999/xlink" width="1500" zoomAndPan="magnify" viewBox="0 0 1125 1124.99995" height="1500" preserveAspectRatio="xMidYMid meet" version="1.0"><defs><filter x="0%" y="0%" width="100%" height="100%" id="id1"><feColorMatrix values="0 0 0 0 1 0 0 0 0 1 0 0 0 0 1 0 0 0 1 0" color-interpolation-filters="sRGB"/></filter><g/><mask id="id2"><g filter="url(#id1)"><rect x="-112.5" width="1350" fill="#000000" y="-112.499995" height="1349.99994" fill-opacity="0.4471"/></g></mask><clipPath id="id3"><path d="M 0.757812 0.757812 L 1124.257812 0.757812 L 1124.257812 1124.257812 L 0.757812 1124.257812 Z M 0.757812 0.757812 " clip-rule="nonzero"/></clipPath><clipPath id="id4"><rect x="0" width="1125" y="0" height="1125"/></clipPath><mask id="id5"><g filter="url(#id1)"><rect x="-112.5" width="1350" fill="#000000" y="-112.499995" height="1349.99994" fill-opacity="0.4588"/></g></mask><clipPath id="id6"><path d="M 2.390625 2.390625 L 866.390625 2.390625 L 866.390625 866.390625 L 2.390625 866.390625 Z M 2.390625 2.390625 " clip-rule="nonzero"/></clipPath><clipPath id="id7"><rect x="0" width="867" y="0" height="867"/></clipPath><clipPath id="id8"><path d="M 520.382812 520.382812 L 604.382812 520.382812 L 604.382812 604.382812 L 520.382812 604.382812 Z M 520.382812 520.382812 " clip-rule="nonzero"/></clipPath></defs><rect x="-112.5" width="1350" fill="#ffffff" y="-112.499995" height="1349.99994" fill-opacity="1"/><rect x="-112.5" width="1350" fill="#ffffff" y="-112.499995" height="1349.99994" fill-opacity="1"/><rect x="-112.5" width="1350" fill="#ffffff" y="-112.499995" height="1349.99994" fill-opacity="1"/><rect x="-112.5" width="1350" fill="#ffffff" y="-112.499995" height="1349.99994" fill-opacity="1"/><g mask="url(#id2)"><g transform="matrix(1, 0, 0, 1, 0, -0.000000000000114957)"><g clip-path="url(#id4)"><path fill="#7d8693" d="M 1123.136719 562.507812 C 1123.136719 571.683594 1122.910156 580.851562 1122.460938 590.015625 C 1122.011719 599.179688 1121.335938 608.328125 1120.4375 617.457031 C 1119.535156 626.589844 1118.414062 635.691406 1117.066406 644.769531 C 1115.722656 653.84375 1114.152344 662.882812 1112.363281 671.878906 C 1110.574219 680.878906 1108.5625 689.828125 1106.332031 698.726562 C 1104.105469 707.628906 1101.65625 716.46875 1098.996094 725.25 C 1096.332031 734.027344 1093.453125 742.738281 1090.363281 751.375 C 1087.273438 760.015625 1083.972656 768.574219 1080.460938 777.050781 C 1076.949219 785.527344 1073.230469 793.910156 1069.308594 802.207031 C 1065.386719 810.5 1061.261719 818.691406 1056.9375 826.785156 C 1052.613281 834.875 1048.089844 842.859375 1043.375 850.726562 C 1038.65625 858.597656 1033.75 866.347656 1028.652344 873.976562 C 1023.554688 881.605469 1018.273438 889.101562 1012.808594 896.472656 C 1007.34375 903.84375 1001.699219 911.074219 995.878906 918.164062 C 990.058594 925.257812 984.066406 932.203125 977.90625 939 C 971.742188 945.800781 965.417969 952.441406 958.929688 958.929688 C 952.441406 965.417969 945.800781 971.742188 939 977.90625 C 932.203125 984.066406 925.257812 990.058594 918.164062 995.878906 C 911.074219 1001.699219 903.84375 1007.34375 896.472656 1012.808594 C 889.101562 1018.273438 881.605469 1023.554688 873.976562 1028.652344 C 866.347656 1033.75 858.597656 1038.65625 850.726562 1043.375 C 842.859375 1048.089844 834.875 1052.613281 826.785156 1056.9375 C 818.691406 1061.261719 810.5 1065.386719 802.207031 1069.308594 C 793.910156 1073.230469 785.527344 1076.949219 777.050781 1080.460938 C 768.574219 1083.972656 760.015625 1087.273438 751.375 1090.363281 C 742.738281 1093.453125 734.027344 1096.332031 725.25 1098.996094 C 716.46875 1101.65625 707.628906 1104.105469 698.726562 1106.332031 C 689.828125 1108.5625 680.878906 1110.574219 671.878906 1112.363281 C 662.882812 1114.152344 653.84375 1115.722656 644.769531 1117.066406 C 635.691406 1118.414062 626.589844 1119.535156 617.457031 1120.4375 C 608.328125 1121.335938 599.179688 1122.007812 590.015625 1122.460938 C 580.851562 1122.910156 571.683594 1123.136719 562.507812 1123.136719 C 553.332031 1123.136719 544.160156 1122.910156 534.996094 1122.460938 C 525.832031 1122.007812 516.6875 1121.335938 507.554688 1120.4375 C 498.425781 1119.535156 489.320312 1118.414062 480.246094 1117.066406 C 471.167969 1115.722656 462.132812 1114.152344 453.132812 1112.363281 C 444.132812 1110.574219 435.183594 1108.5625 426.285156 1106.332031 C 417.386719 1104.105469 408.542969 1101.65625 399.765625 1098.996094 C 390.984375 1096.332031 382.273438 1093.453125 373.636719 1090.363281 C 364.996094 1087.273438 356.441406 1083.972656 347.964844 1080.460938 C 339.488281 1076.949219 331.101562 1073.230469 322.808594 1069.308594 C 314.511719 1065.386719 306.320312 1061.261719 298.226562 1056.9375 C 290.136719 1052.613281 282.15625 1048.089844 274.285156 1043.375 C 266.417969 1038.65625 258.667969 1033.75 251.039062 1028.652344 C 243.410156 1023.554688 235.910156 1018.273438 228.539062 1012.808594 C 221.171875 1007.34375 213.941406 1001.699219 206.847656 995.878906 C 199.753906 990.058594 192.808594 984.066406 186.011719 977.90625 C 179.214844 971.742188 172.570312 965.417969 166.082031 958.929688 C 159.59375 952.441406 153.269531 945.800781 147.109375 939 C 140.945312 932.203125 134.957031 925.257812 129.136719 918.164062 C 123.3125 911.074219 117.671875 903.84375 112.207031 896.472656 C 106.738281 889.101562 101.457031 881.605469 96.359375 873.976562 C 91.261719 866.347656 86.355469 858.597656 81.640625 850.726562 C 76.921875 842.859375 72.402344 834.875 68.078125 826.785156 C 63.75 818.691406 59.628906 810.5 55.703125 802.207031 C 51.78125 793.910156 48.0625 785.527344 44.554688 777.050781 C 41.042969 768.574219 37.742188 760.015625 34.648438 751.375 C 31.558594 742.738281 28.683594 734.027344 26.019531 725.25 C 23.355469 716.46875 20.910156 707.628906 18.679688 698.726562 C 16.449219 689.828125 14.441406 680.878906 12.648438 671.878906 C 10.859375 662.882812 9.292969 653.84375 7.945312 644.769531 C 6.597656 635.691406 5.476562 626.589844 4.578125 617.457031 C 3.679688 608.328125 3.003906 599.179688 2.554688 590.015625 C 2.101562 580.851562 1.878906 571.683594 1.878906 562.507812 C 1.878906 553.332031 2.101562 544.160156 2.554688 534.996094 C 3.003906 525.832031 3.679688 516.6875 4.578125 507.554688 C 5.476562 498.425781 6.597656 489.320312 7.945312 480.246094 C 9.292969 471.167969 10.859375 462.132812 12.648438 453.132812 C 14.441406 444.132812 16.449219 435.183594 18.679688 426.285156 C 20.910156 417.382812 23.355469 408.542969 26.019531 399.765625 C 28.683594 390.984375 31.558594 382.273438 34.648438 373.636719 C 37.742188 364.996094 41.042969 356.441406 44.554688 347.964844 C 48.0625 339.488281 51.78125 331.101562 55.703125 322.808594 C 59.628906 314.511719 63.75 306.320312 68.078125 298.226562 C 72.402344 290.136719 76.921875 282.15625 81.640625 274.285156 C 86.355469 266.417969 91.261719 258.667969 96.359375 251.039062 C 101.457031 243.410156 106.738281 235.910156 112.207031 228.539062 C 117.671875 221.171875 123.3125 213.941406 129.136719 206.847656 C 134.957031 199.753906 140.945312 192.808594 147.109375 186.011719 C 153.269531 179.214844 159.59375 172.570312 166.082031 166.082031 C 172.570312 159.59375 179.214844 153.269531 186.011719 147.109375 C 192.808594 140.945312 199.753906 134.957031 206.847656 129.132812 C 213.941406 123.3125 221.171875 117.671875 228.539062 112.207031 C 235.910156 106.738281 243.410156 101.457031 251.039062 96.359375 C 258.667969 91.261719 266.417969 86.355469 274.285156 81.640625 C 282.15625 76.921875 290.136719 72.402344 298.226562 68.078125 C 306.320312 63.75 314.511719 59.628906 322.808594 55.703125 C 331.101562 51.78125 339.488281 48.0625 347.964844 44.554688 C 356.441406 41.042969 364.996094 37.742188 373.636719 34.648438 C 382.273438 31.558594 390.984375 28.683594 399.765625 26.019531 C 408.542969 23.355469 417.386719 20.910156 426.285156 18.679688 C 435.183594 16.449219 444.132812 14.441406 453.132812 12.648438 C 462.132812 10.859375 471.167969 9.292969 480.246094 7.945312 C 489.320312 6.597656 498.425781 5.476562 507.554688 4.578125 C 516.6875 3.679688 525.832031 3.003906 534.996094 2.554688 C 544.160156 2.101562 553.332031 1.878906 562.507812 1.878906 C 571.683594 1.878906 580.851562 2.101562 590.015625 2.554688 C 599.179688 3.003906 608.328125 3.679688 617.457031 4.578125 C 626.589844 5.476562 635.691406 6.597656 644.769531 7.945312 C 653.84375 9.292969 662.882812 10.859375 671.878906 12.648438 C 680.878906 14.441406 689.828125 16.449219 698.726562 18.679688 C 707.628906 20.910156 716.46875 23.355469 725.25 26.019531 C 734.027344 28.683594 742.738281 31.558594 751.375 34.648438 C 760.015625 37.742188 768.574219 41.042969 777.050781 44.554688 C 785.527344 48.0625 793.910156 51.78125 802.207031 55.703125 C 810.5 59.628906 818.691406 63.75 826.785156 68.078125 C 834.875 72.402344 842.859375 76.921875 850.726562 81.640625 C 858.597656 86.355469 866.347656 91.261719 873.976562 96.359375 C 881.605469 101.457031 889.101562 106.738281 896.472656 112.207031 C 903.84375 117.671875 911.074219 123.3125 918.164062 129.132812 C 925.257812 134.957031 932.203125 140.945312 939 147.109375 C 945.800781 153.269531 952.441406 159.59375 958.929688 166.082031 C 965.417969 172.570312 971.742188 179.214844 977.90625 186.011719 C 984.066406 192.808594 990.058594 199.753906 995.878906 206.847656 C 1001.699219 213.941406 1007.34375 221.171875 1012.808594 228.539062 C 1018.273438 235.910156 1023.554688 243.410156 1028.652344 251.039062 C 1033.75 258.667969 1038.65625 266.417969 1043.375 274.285156 C 1048.089844 282.15625 1052.613281 290.136719 1056.9375 298.226562 C 1061.261719 306.320312 1065.386719 314.511719 1069.308594 322.808594 C 1073.230469 331.101562 1076.949219 339.488281 1080.460938 347.964844 C 1083.972656 356.441406 1087.273438 364.996094 1090.363281 373.636719 C 1093.453125 382.273438 1096.332031 390.984375 1098.996094 399.765625 C 1101.65625 408.542969 1104.105469 417.382812 1106.332031 426.285156 C 1108.5625 435.183594 1110.574219 444.132812 1112.363281 453.132812 C 1114.152344 462.132812 1115.722656 471.167969 1117.066406 480.246094 C 1118.414062 489.320312 1119.535156 498.425781 1120.4375 507.554688 C 1121.335938 516.6875 1122.011719 525.832031 1122.460938 534.996094 C 1122.910156 544.160156 1123.136719 553.332031 1123.136719 562.507812 Z M 1123.136719 562.507812 " fill-opacity="1" fill-rule="nonzero"/><g clip-path="url(#id3)"><path fill="#d9d9d9" d="M 562.507812 1124.257812 C 412.480469 1124.257812 271.429688 1065.726562 165.355469 959.65625 C 59.285156 853.585938 0.757812 712.53125 0.757812 562.507812 C 0.757812 412.480469 59.285156 271.429688 165.355469 165.355469 C 271.429688 59.285156 412.480469 0.757812 562.507812 0.757812 C 712.53125 0.757812 853.585938 59.285156 959.65625 165.355469 C 1065.726562 271.429688 1124.257812 412.480469 1124.257812 562.507812 C 1124.257812 712.53125 1065.726562 853.585938 959.65625 959.65625 C 853.585938 1065.726562 712.53125 1124.257812 562.507812 1124.257812 Z M 562.507812 34.394531 C 421.453125 34.394531 288.917969 89.335938 189.128906 189.128906 C 89.335938 288.917969 34.394531 421.453125 34.394531 562.507812 C 34.394531 703.5625 89.335938 836.09375 189.128906 935.886719 C 288.917969 1035.675781 421.453125 1090.617188 562.507812 1090.617188 C 703.5625 1090.617188 836.09375 1035.675781 935.886719 935.886719 C 1035.675781 836.09375 1090.617188 703.5625 1090.617188 562.507812 C 1090.617188 421.453125 1035.675781 288.917969 935.886719 189.128906 C 836.09375 89.335938 703.5625 34.394531 562.507812 34.394531 Z M 562.507812 34.394531 " fill-opacity="1" fill-rule="nonzero"/></g></g></g></g><g mask="url(#id5)"><g transform="matrix(1, 0, 0, 1, 128, 128)"><g clip-path="url(#id7)"><path fill="#ffffff" d="M 857.753906 434.390625 C 857.753906 441.320312 857.582031 448.242188 857.242188 455.164062 C 856.902344 462.085938 856.394531 468.992188 855.714844 475.886719 C 855.035156 482.78125 854.1875 489.65625 853.171875 496.511719 C 852.152344 503.363281 850.96875 510.1875 849.617188 516.984375 C 848.265625 523.78125 846.75 530.539062 845.066406 537.257812 C 843.382812 543.980469 841.535156 550.65625 839.523438 557.285156 C 837.511719 563.917969 835.339844 570.492188 833.003906 577.015625 C 830.671875 583.539062 828.175781 590.003906 825.527344 596.40625 C 822.875 602.804688 820.066406 609.136719 817.105469 615.402344 C 814.144531 621.664062 811.027344 627.851562 807.761719 633.960938 C 804.496094 640.074219 801.082031 646.097656 797.519531 652.042969 C 793.957031 657.984375 790.253906 663.835938 786.402344 669.597656 C 782.554688 675.359375 778.566406 681.023438 774.4375 686.585938 C 770.3125 692.152344 766.050781 697.613281 761.652344 702.96875 C 757.257812 708.324219 752.734375 713.570312 748.082031 718.703125 C 743.429688 723.835938 738.652344 728.855469 733.753906 733.753906 C 728.855469 738.652344 723.835938 743.429688 718.703125 748.082031 C 713.570312 752.734375 708.324219 757.257812 702.96875 761.652344 C 697.613281 766.050781 692.152344 770.3125 686.585938 774.4375 C 681.023438 778.566406 675.359375 782.554688 669.597656 786.402344 C 663.835938 790.253906 657.984375 793.957031 652.042969 797.519531 C 646.097656 801.082031 640.074219 804.496094 633.960938 807.761719 C 627.851562 811.027344 621.664062 814.144531 615.402344 817.105469 C 609.136719 820.066406 602.804688 822.875 596.40625 825.527344 C 590.003906 828.175781 583.539062 830.671875 577.015625 833.003906 C 570.492188 835.339844 563.917969 837.511719 557.285156 839.523438 C 550.65625 841.535156 543.980469 843.382812 537.257812 845.066406 C 530.539062 846.75 523.78125 848.265625 516.984375 849.617188 C 510.1875 850.96875 503.363281 852.152344 496.511719 853.171875 C 489.65625 854.1875 482.78125 855.035156 475.886719 855.714844 C 468.992188 856.394531 462.085938 856.902344 455.164062 857.242188 C 448.242188 857.582031 441.320312 857.753906 434.390625 857.753906 C 427.460938 857.753906 420.539062 857.582031 413.617188 857.242188 C 406.699219 856.902344 399.789062 856.394531 392.894531 855.714844 C 386 855.035156 379.125 854.1875 372.269531 853.171875 C 365.417969 852.152344 358.59375 850.96875 351.796875 849.617188 C 345 848.265625 338.242188 846.75 331.523438 845.066406 C 324.800781 843.382812 318.125 841.535156 311.496094 839.523438 C 304.867188 837.511719 298.289062 835.339844 291.765625 833.003906 C 285.242188 830.671875 278.777344 828.175781 272.378906 825.527344 C 265.976562 822.875 259.644531 820.066406 253.378906 817.105469 C 247.117188 814.144531 240.929688 811.027344 234.820312 807.761719 C 228.710938 804.496094 222.683594 801.082031 216.738281 797.519531 C 210.796875 793.957031 204.945312 790.253906 199.183594 786.402344 C 193.421875 782.554688 187.761719 778.566406 182.195312 774.4375 C 176.628906 770.3125 171.167969 766.050781 165.8125 761.652344 C 160.457031 757.257812 155.210938 752.734375 150.078125 748.082031 C 144.945312 743.429688 139.929688 738.652344 135.027344 733.753906 C 130.128906 728.855469 125.355469 723.835938 120.699219 718.703125 C 116.046875 713.570312 111.523438 708.324219 107.128906 702.96875 C 102.734375 697.613281 98.472656 692.152344 94.34375 686.585938 C 90.214844 681.023438 86.226562 675.359375 82.378906 669.597656 C 78.53125 663.835938 74.824219 657.984375 71.261719 652.042969 C 67.699219 646.097656 64.285156 640.074219 61.019531 633.960938 C 57.753906 627.851562 54.640625 621.664062 51.675781 615.402344 C 48.714844 609.136719 45.90625 602.804688 43.253906 596.40625 C 40.605469 590.003906 38.113281 583.539062 35.777344 577.015625 C 33.441406 570.492188 31.269531 563.917969 29.257812 557.285156 C 27.246094 550.65625 25.402344 543.980469 23.71875 537.257812 C 22.035156 530.539062 20.515625 523.78125 19.164062 516.984375 C 17.8125 510.1875 16.628906 503.363281 15.613281 496.511719 C 14.59375 489.65625 13.746094 482.78125 13.066406 475.886719 C 12.390625 468.992188 11.878906 462.085938 11.539062 455.164062 C 11.199219 448.242188 11.03125 441.320312 11.03125 434.390625 C 11.03125 427.460938 11.199219 420.539062 11.539062 413.617188 C 11.878906 406.699219 12.390625 399.789062 13.066406 392.894531 C 13.746094 386 14.59375 379.125 15.613281 372.269531 C 16.628906 365.417969 17.8125 358.59375 19.164062 351.796875 C 20.515625 345 22.035156 338.242188 23.71875 331.523438 C 25.402344 324.800781 27.246094 318.125 29.257812 311.496094 C 31.269531 304.867188 33.441406 298.289062 35.777344 291.765625 C 38.113281 285.242188 40.605469 278.777344 43.253906 272.378906 C 45.90625 265.976562 48.714844 259.644531 51.675781 253.378906 C 54.640625 247.117188 57.753906 240.929688 61.019531 234.820312 C 64.285156 228.710938 67.699219 222.683594 71.261719 216.738281 C 74.824219 210.796875 78.53125 204.945312 82.378906 199.183594 C 86.226562 193.421875 90.214844 187.761719 94.34375 182.195312 C 98.472656 176.628906 102.734375 171.167969 107.128906 165.8125 C 111.523438 160.457031 116.046875 155.210938 120.699219 150.078125 C 125.355469 144.945312 130.128906 139.929688 135.027344 135.027344 C 139.929688 130.128906 144.945312 125.355469 150.078125 120.699219 C 155.210938 116.046875 160.457031 111.523438 165.8125 107.128906 C 171.167969 102.734375 176.628906 98.472656 182.195312 94.34375 C 187.761719 90.214844 193.421875 86.226562 199.183594 82.378906 C 204.945312 78.527344 210.796875 74.824219 216.738281 71.261719 C 222.683594 67.699219 228.710938 64.285156 234.820312 61.019531 C 240.929688 57.753906 247.117188 54.640625 253.378906 51.675781 C 259.644531 48.714844 265.976562 45.90625 272.378906 43.253906 C 278.777344 40.605469 285.242188 38.113281 291.765625 35.777344 C 298.289062 33.441406 304.867188 31.269531 311.496094 29.257812 C 318.125 27.246094 324.800781 25.402344 331.523438 23.71875 C 338.242188 22.035156 345 20.515625 351.796875 19.164062 C 358.59375 17.8125 365.417969 16.628906 372.269531 15.613281 C 379.125 14.59375 386 13.746094 392.894531 13.066406 C 399.789062 12.390625 406.699219 11.878906 413.617188 11.539062 C 420.539062 11.199219 427.460938 11.03125 434.390625 11.03125 C 441.320312 11.03125 448.242188 11.199219 455.164062 11.539062 C 462.085938 11.878906 468.992188 12.390625 475.886719 13.066406 C 482.78125 13.746094 489.65625 14.59375 496.511719 15.613281 C 503.363281 16.628906 510.1875 17.8125 516.984375 19.164062 C 523.78125 20.515625 530.539062 22.035156 537.257812 23.71875 C 543.980469 25.402344 550.65625 27.246094 557.285156 29.257812 C 563.917969 31.269531 570.492188 33.441406 577.015625 35.777344 C 583.539062 38.113281 590.003906 40.605469 596.40625 43.253906 C 602.804688 45.90625 609.136719 48.714844 615.402344 51.675781 C 621.664062 54.640625 627.851562 57.753906 633.960938 61.019531 C 640.074219 64.285156 646.097656 67.699219 652.042969 71.261719 C 657.984375 74.824219 663.835938 78.527344 669.597656 82.378906 C 675.359375 86.226562 681.023438 90.214844 686.585938 94.34375 C 692.152344 98.472656 697.613281 102.734375 702.96875 107.128906 C 708.324219 111.523438 713.570312 116.046875 718.703125 120.699219 C 723.835938 125.355469 728.855469 130.128906 733.753906 135.027344 C 738.652344 139.929688 743.429688 144.945312 748.082031 150.078125 C 752.734375 155.210938 757.257812 160.457031 761.652344 165.8125 C 766.050781 171.167969 770.3125 176.628906 774.4375 182.195312 C 778.566406 187.761719 782.554688 193.421875 786.402344 199.183594 C 790.253906 204.945312 793.957031 210.796875 797.519531 216.738281 C 801.082031 222.683594 804.496094 228.710938 807.761719 234.820312 C 811.027344 240.929688 814.144531 247.117188 817.105469 253.378906 C 820.066406 259.644531 822.875 265.976562 825.527344 272.378906 C 828.175781 278.777344 830.671875 285.242188 833.003906 291.765625 C 835.339844 298.289062 837.511719 304.867188 839.523438 311.496094 C 841.535156 318.125 843.382812 324.800781 845.066406 331.523438 C 846.75 338.242188 848.265625 345 849.617188 351.796875 C 850.96875 358.59375 852.152344 365.417969 853.171875 372.269531 C 854.1875 379.125 855.035156 386 855.714844 392.894531 C 856.394531 399.789062 856.902344 406.699219 857.242188 413.617188 C 857.582031 420.539062 857.753906 427.460938 857.753906 434.390625 Z M 857.753906 434.390625 " fill-opacity="1" fill-rule="nonzero"/><g clip-path="url(#id6)"><path fill="#7ed957" d="M 434.390625 866.390625 C 319 866.390625 210.511719 821.453125 128.921875 739.859375 C 47.324219 658.269531 2.390625 549.78125 2.390625 434.390625 C 2.390625 319 47.324219 210.511719 128.921875 128.921875 C 210.511719 47.324219 319 2.390625 434.390625 2.390625 C 549.78125 2.390625 658.265625 47.324219 739.859375 128.921875 C 821.453125 210.511719 866.390625 319 866.390625 434.390625 C 866.390625 549.78125 821.453125 658.269531 739.859375 739.859375 C 658.265625 821.453125 549.78125 866.390625 434.390625 866.390625 Z M 434.390625 19.671875 C 205.714844 19.671875 19.671875 205.714844 19.671875 434.390625 C 19.671875 663.070312 205.714844 849.109375 434.390625 849.109375 C 663.070312 849.109375 849.109375 663.070312 849.109375 434.390625 C 849.109375 205.714844 663.070312 19.671875 434.390625 19.671875 Z M 434.390625 19.671875 " fill-opacity="1" fill-rule="nonzero"/></g><path fill="#7ed957" d="M 434.390625 765.308594 C 251.921875 765.308594 103.472656 616.859375 103.472656 434.390625 C 103.472656 251.921875 251.921875 103.472656 434.390625 103.472656 C 616.859375 103.472656 765.308594 251.921875 765.308594 434.390625 C 765.308594 616.859375 616.859375 765.308594 434.390625 765.308594 Z M 434.390625 120.753906 C 261.449219 120.753906 120.753906 261.449219 120.753906 434.390625 C 120.753906 607.332031 261.449219 748.03125 434.390625 748.03125 C 607.332031 748.03125 748.03125 607.332031 748.03125 434.390625 C 748.03125 261.449219 607.332031 120.753906 434.390625 120.753906 Z M 434.390625 120.753906 " fill-opacity="1" fill-rule="nonzero"/><path fill="#7ed957" d="M 438.339844 822.632812 L 438 791.53125 C 440.214844 791.503906 442.425781 791.460938 444.628906 791.398438 L 445.519531 822.488281 C 443.132812 822.558594 440.742188 822.605469 438.339844 822.632812 Z M 420.351562 822.414062 C 417.953125 822.328125 415.558594 822.230469 413.171875 822.097656 L 414.816406 791.03125 C 417.019531 791.148438 419.230469 791.246094 421.441406 791.324219 Z M 463.480469 821.558594 L 461.164062 790.550781 C 463.363281 790.378906 465.566406 790.199219 467.757812 789.996094 L 470.660156 820.964844 C 468.273438 821.179688 465.882812 821.378906 463.480469 821.558594 Z M 395.234375 820.730469 C 392.84375 820.488281 390.457031 820.230469 388.074219 819.949219 L 391.726562 789.0625 C 393.914062 789.320312 396.105469 789.558594 398.308594 789.777344 Z M 488.539062 818.871094 L 484.191406 788.070312 C 486.386719 787.761719 488.574219 787.433594 490.757812 787.09375 L 495.640625 817.804688 C 493.28125 818.179688 490.914062 818.535156 488.539062 818.871094 Z M 370.265625 817.429688 C 367.890625 817.035156 365.523438 816.621094 363.164062 816.183594 L 368.820312 785.601562 C 370.988281 785.996094 373.15625 786.378906 375.335938 786.738281 Z M 513.347656 814.566406 L 507.027344 784.109375 C 509.195312 783.660156 511.355469 783.191406 513.511719 782.707031 L 520.375 813.046875 C 518.042969 813.570312 515.703125 814.078125 513.347656 814.566406 Z M 345.554688 812.507812 C 343.214844 811.960938 340.875 811.390625 338.546875 810.804688 L 346.1875 780.65625 C 348.320312 781.195312 350.464844 781.714844 352.613281 782.214844 Z M 537.835938 808.652344 L 529.554688 778.671875 C 531.679688 778.078125 533.800781 777.476562 535.914062 776.84375 L 544.765625 806.664062 C 542.464844 807.351562 540.15625 808.011719 537.835938 808.652344 Z M 321.214844 805.992188 C 318.902344 805.289062 316.597656 804.566406 314.304688 803.820312 L 323.90625 774.238281 C 326.011719 774.921875 328.121094 775.582031 330.238281 776.222656 Z M 561.890625 801.148438 L 551.675781 771.769531 C 553.757812 771.046875 555.835938 770.296875 557.902344 769.539062 L 568.671875 798.71875 C 566.421875 799.546875 564.164062 800.359375 561.890625 801.148438 Z M 297.28125 797.867188 C 295.023438 797.015625 292.773438 796.148438 290.535156 795.253906 L 302.054688 766.359375 C 304.105469 767.179688 306.167969 767.976562 308.238281 768.757812 Z M 585.375 792.109375 L 573.238281 763.476562 C 575.273438 762.617188 577.292969 761.734375 579.304688 760.847656 L 591.949219 789.261719 C 589.769531 790.226562 587.574219 791.175781 585.375 792.109375 Z M 273.953125 788.199219 C 271.753906 787.207031 269.5625 786.191406 267.386719 785.152344 L 280.777344 757.078125 C 282.769531 758.027344 284.773438 758.957031 286.785156 759.863281 Z M 608.175781 781.578125 L 594.230469 753.773438 C 596.199219 752.789062 598.152344 751.78125 600.097656 750.761719 L 614.578125 778.292969 C 612.453125 779.40625 610.320312 780.5 608.175781 781.578125 Z M 251.304688 777.039062 C 249.183594 775.90625 247.074219 774.753906 244.972656 773.578125 L 260.140625 746.425781 C 262.070312 747.503906 264.011719 748.558594 265.964844 749.609375 Z M 630.289062 769.5625 L 614.539062 742.742188 C 616.445312 741.625 618.339844 740.488281 620.222656 739.335938 L 636.4375 765.875 C 634.398438 767.128906 632.351562 768.355469 630.289062 769.5625 Z M 229.457031 764.4375 C 227.417969 763.171875 225.386719 761.882812 223.371094 760.582031 L 240.257812 734.46875 C 242.113281 735.660156 243.980469 736.851562 245.859375 738.015625 Z M 651.550781 756.160156 L 634.128906 730.390625 C 635.960938 729.15625 637.769531 727.90625 639.570312 726.640625 L 657.464844 752.078125 C 655.511719 753.457031 653.539062 754.816406 651.550781 756.160156 Z M 208.46875 750.445312 C 206.519531 749.042969 204.582031 747.636719 202.652344 746.207031 L 221.195312 721.234375 C 222.96875 722.550781 224.757812 723.855469 226.558594 725.144531 Z M 671.9375 741.390625 L 652.875 716.804688 C 654.625 715.457031 656.359375 714.089844 658.078125 712.699219 L 677.582031 736.929688 C 675.710938 738.4375 673.828125 739.921875 671.9375 741.390625 Z M 188.457031 735.140625 C 186.59375 733.621094 184.746094 732.082031 182.914062 730.527344 L 203.042969 706.816406 C 204.722656 708.238281 206.417969 709.65625 208.128906 711.046875 Z M 691.3125 725.34375 L 670.726562 702.027344 C 672.378906 700.570312 674.015625 699.09375 675.644531 697.605469 L 696.671875 720.527344 C 694.898438 722.148438 693.113281 723.753906 691.3125 725.34375 Z M 169.46875 718.582031 C 167.710938 716.949219 165.972656 715.304688 164.246094 713.628906 L 185.851562 691.257812 C 187.4375 692.792969 189.039062 694.3125 190.660156 695.816406 Z M 709.640625 708.066406 L 687.574219 686.140625 C 689.128906 684.574219 690.671875 682.996094 692.203125 681.402344 L 714.667969 702.90625 C 713.007812 704.648438 711.332031 706.367188 709.640625 708.066406 Z M 151.597656 700.835938 C 149.949219 699.089844 148.320312 697.335938 146.707031 695.558594 L 169.703125 674.621094 C 171.191406 676.246094 172.691406 677.875 174.207031 679.476562 Z M 726.804688 689.648438 L 703.394531 669.171875 C 704.847656 667.511719 706.285156 665.835938 707.707031 664.144531 L 731.5 684.183594 C 729.949219 686.015625 728.386719 687.84375 726.804688 689.648438 Z M 134.90625 681.980469 C 133.378906 680.136719 131.867188 678.277344 130.371094 676.40625 L 154.675781 656.992188 C 156.050781 658.714844 157.445312 660.429688 158.855469 662.132812 Z M 742.773438 670.136719 L 718.070312 651.238281 C 719.414062 649.480469 720.746094 647.710938 722.058594 645.929688 L 747.09375 664.386719 C 745.671875 666.316406 744.230469 668.234375 742.773438 670.136719 Z M 119.476562 662.101562 C 118.070312 660.167969 116.679688 658.214844 115.3125 656.25 L 140.8125 638.4375 C 142.074219 640.246094 143.355469 642.042969 144.648438 643.828125 Z M 757.441406 649.644531 L 731.578125 632.363281 C 732.804688 630.53125 734.007812 628.683594 735.207031 626.824219 L 761.390625 643.609375 C 760.09375 645.636719 758.777344 647.648438 757.441406 649.644531 Z M 105.363281 641.277344 C 104.085938 639.253906 102.824219 637.214844 101.582031 635.167969 L 128.1875 619.046875 C 129.328125 620.9375 130.488281 622.8125 131.664062 624.671875 Z M 770.761719 628.226562 L 743.832031 612.667969 C 744.9375 610.757812 746.027344 608.828125 747.09375 606.894531 L 774.316406 621.945312 C 773.148438 624.050781 771.964844 626.144531 770.761719 628.226562 Z M 92.632812 619.585938 C 91.488281 617.488281 90.367188 615.375 89.257812 613.25 L 116.847656 598.886719 C 117.863281 600.839844 118.898438 602.785156 119.953125 604.714844 Z M 782.664062 605.988281 L 754.78125 592.203125 C 755.753906 590.222656 756.71875 588.234375 757.660156 586.230469 L 785.804688 599.476562 C 784.78125 601.65625 783.730469 603.828125 782.664062 605.988281 Z M 81.339844 597.125 C 80.335938 594.957031 79.351562 592.777344 78.386719 590.59375 L 106.847656 578.042969 C 107.734375 580.058594 108.640625 582.0625 109.566406 584.0625 Z M 793.105469 582.992188 L 764.378906 571.0625 C 765.230469 569.019531 766.058594 566.96875 766.871094 564.910156 L 795.8125 576.304688 C 794.929688 578.539062 794.027344 580.773438 793.105469 582.992188 Z M 71.53125 573.992188 C 70.667969 571.753906 69.828125 569.507812 69.003906 567.25 L 98.222656 556.589844 C 98.976562 558.664062 99.753906 560.730469 100.546875 562.789062 Z M 802.023438 559.351562 L 772.574219 549.332031 C 773.289062 547.234375 773.984375 545.125 774.660156 543.019531 L 804.285156 552.492188 C 803.550781 554.789062 802.796875 557.074219 802.023438 559.351562 Z M 63.230469 550.199219 C 62.511719 547.910156 61.820312 545.621094 61.144531 543.316406 L 90.996094 534.570312 C 91.617188 536.695312 92.253906 538.8125 92.914062 540.917969 Z M 809.367188 535.222656 L 779.328125 527.148438 C 779.898438 525.023438 780.445312 522.882812 780.988281 520.738281 L 811.167969 528.25 C 810.589844 530.582031 809.988281 532.90625 809.367188 535.222656 Z M 56.5 525.917969 C 55.933594 523.585938 55.390625 521.25 54.867188 518.902344 L 85.226562 512.140625 C 85.707031 514.300781 86.207031 516.449219 86.726562 518.589844 Z M 815.105469 510.691406 L 784.609375 504.582031 C 785.039062 502.421875 785.453125 500.253906 785.84375 498.082031 L 816.453125 503.609375 C 816.027344 505.980469 815.578125 508.339844 815.105469 510.691406 Z M 51.371094 501.25 C 50.957031 498.890625 50.566406 496.523438 50.199219 494.148438 L 80.9375 489.378906 C 81.273438 491.5625 81.632812 493.738281 82.011719 495.910156 Z M 819.238281 485.839844 L 788.40625 481.730469 C 788.695312 479.542969 788.96875 477.359375 789.21875 475.164062 L 820.125 478.683594 C 819.847656 481.082031 819.554688 483.460938 819.238281 485.839844 Z M 47.855469 476.3125 C 47.597656 473.929688 47.363281 471.542969 47.144531 469.148438 L 78.125 466.375 C 78.324219 468.574219 78.539062 470.773438 78.777344 472.964844 Z M 821.753906 460.777344 L 790.71875 458.679688 C 790.867188 456.480469 791 454.273438 791.105469 452.070312 L 822.175781 453.59375 C 822.054688 455.992188 821.914062 458.390625 821.753906 460.777344 Z M 45.957031 451.203125 C 45.855469 448.820312 45.773438 446.429688 45.710938 444.039062 L 76.804688 443.253906 C 76.859375 445.457031 76.9375 447.664062 77.03125 449.859375 Z M 822.652344 435.617188 L 791.546875 435.507812 L 791.554688 434.121094 C 791.554688 432.363281 791.539062 430.621094 791.519531 428.882812 L 822.617188 428.421875 C 822.648438 430.324219 822.660156 432.226562 822.660156 434.136719 Z M 76.769531 426.679688 L 45.671875 426.042969 C 45.722656 423.640625 45.792969 421.246094 45.886719 418.855469 L 76.964844 420.050781 C 76.878906 422.257812 76.8125 424.464844 76.769531 426.679688 Z M 790.894531 412.320312 C 790.769531 410.113281 790.617188 407.910156 790.4375 405.714844 L 821.445312 403.273438 C 821.628906 405.660156 821.796875 408.054688 821.941406 410.453125 Z M 77.984375 403.527344 L 46.988281 400.902344 C 47.191406 398.507812 47.417969 396.121094 47.664062 393.738281 L 78.601562 396.929688 C 78.375 399.125 78.171875 401.324219 77.984375 403.527344 Z M 788.757812 389.242188 C 788.484375 387.046875 788.191406 384.859375 787.875 382.675781 L 818.65625 378.25 C 818.996094 380.617188 819.320312 382.996094 819.617188 385.378906 Z M 80.683594 380.515625 L 49.925781 375.882812 C 50.285156 373.507812 50.664062 371.140625 51.0625 368.777344 L 81.730469 373.96875 C 81.363281 376.144531 81.015625 378.328125 80.683594 380.515625 Z M 785.132812 366.351562 C 784.722656 364.183594 784.289062 362.023438 783.828125 359.871094 L 814.257812 353.4375 C 814.753906 355.785156 815.230469 358.140625 815.683594 360.503906 Z M 84.871094 357.726562 L 54.480469 351.105469 C 54.992188 348.761719 55.523438 346.421875 56.078125 344.089844 L 86.34375 351.265625 C 85.835938 353.410156 85.34375 355.566406 84.871094 357.726562 Z M 780.039062 343.777344 C 779.476562 341.632812 778.902344 339.496094 778.304688 337.367188 L 808.253906 328.972656 C 808.890625 331.277344 809.515625 333.585938 810.128906 335.90625 Z M 90.539062 335.257812 L 60.640625 326.679688 C 61.304688 324.367188 61.988281 322.066406 62.691406 319.769531 L 92.421875 328.917969 C 91.773438 331.023438 91.144531 333.136719 90.539062 335.257812 Z M 773.460938 321.542969 C 772.773438 319.445312 772.058594 317.355469 771.324219 315.277344 L 800.664062 304.945312 C 801.460938 307.207031 802.238281 309.480469 802.992188 311.761719 Z M 97.667969 313.179688 L 68.402344 302.648438 C 69.214844 300.382812 70.050781 298.125 70.90625 295.878906 L 99.976562 306.941406 C 99.191406 309.011719 98.417969 311.089844 97.667969 313.179688 Z M 765.460938 299.8125 C 764.632812 297.769531 763.785156 295.738281 762.921875 293.714844 L 791.523438 281.496094 C 792.460938 283.6875 793.378906 285.894531 794.28125 288.109375 Z M 106.238281 291.59375 L 77.71875 279.171875 C 78.683594 276.964844 79.660156 274.765625 80.664062 272.582031 L 108.945312 285.527344 C 108.023438 287.539062 107.121094 289.558594 106.238281 291.59375 Z M 756.070312 278.675781 C 755.109375 276.699219 754.140625 274.734375 753.148438 272.773438 L 780.898438 258.707031 C 781.980469 260.847656 783.039062 262.996094 784.089844 265.15625 Z M 116.195312 270.617188 L 88.546875 256.367188 C 89.648438 254.230469 90.769531 252.105469 91.910156 249.988281 L 119.289062 264.746094 C 118.238281 266.695312 117.207031 268.648438 116.195312 270.617188 Z M 745.332031 258.203125 C 744.25 256.289062 743.140625 254.386719 742.027344 252.496094 L 768.800781 236.664062 C 770.023438 238.726562 771.214844 240.800781 772.402344 242.890625 Z M 127.492188 250.347656 L 100.832031 234.328125 C 102.066406 232.265625 103.320312 230.222656 104.59375 228.183594 L 130.964844 244.6875 C 129.789062 246.5625 128.632812 248.449219 127.492188 250.347656 Z M 733.289062 238.457031 C 732.085938 236.613281 730.863281 234.78125 729.613281 232.964844 L 755.308594 215.429688 C 756.65625 217.410156 757.992188 219.402344 759.304688 221.40625 Z M 140.078125 230.855469 L 114.511719 213.140625 C 115.878906 211.167969 117.261719 209.207031 118.664062 207.261719 L 143.90625 225.4375 C 142.613281 227.230469 141.335938 229.039062 140.078125 230.855469 Z M 719.976562 219.515625 C 718.652344 217.75 717.308594 216 715.957031 214.261719 L 740.46875 195.113281 C 741.945312 197 743.402344 198.90625 744.84375 200.820312 Z M 153.894531 212.226562 L 129.523438 192.898438 C 131.015625 191.019531 132.523438 189.152344 134.046875 187.300781 L 158.0625 207.066406 C 156.65625 208.773438 155.265625 210.492188 153.894531 212.226562 Z M 705.46875 201.464844 C 704.03125 199.789062 702.574219 198.125 701.109375 196.476562 L 724.335938 175.789062 C 725.929688 177.578125 727.507812 179.382812 729.070312 181.199219 Z M 168.882812 194.527344 L 145.804688 173.671875 C 147.414062 171.890625 149.042969 170.125 150.683594 168.375 L 173.367188 189.65625 C 171.855469 191.265625 170.363281 192.890625 168.882812 194.527344 Z M 689.808594 184.367188 C 688.265625 182.789062 686.71875 181.230469 685.148438 179.683594 L 706.988281 157.535156 C 708.699219 159.222656 710.394531 160.925781 712.070312 162.644531 Z M 184.972656 177.839844 L 163.289062 155.539062 C 165.007812 153.867188 166.746094 152.210938 168.496094 150.570312 L 189.761719 173.269531 C 188.152344 174.78125 186.554688 176.300781 184.972656 177.839844 Z M 673.09375 168.320312 C 671.453125 166.84375 669.792969 165.382812 668.125 163.933594 L 688.496094 140.429688 C 690.3125 142.003906 692.109375 143.589844 693.894531 145.195312 Z M 202.097656 162.230469 L 181.894531 138.578125 C 183.71875 137.019531 185.558594 135.480469 187.410156 133.953125 L 207.164062 157.980469 C 205.460938 159.382812 203.773438 160.796875 202.097656 162.230469 Z M 655.359375 153.375 C 653.625 152.007812 651.878906 150.652344 650.121094 149.316406 L 668.941406 124.546875 C 670.847656 126 672.75 127.46875 674.636719 128.957031 Z M 220.1875 147.761719 L 201.550781 122.859375 C 203.46875 121.421875 205.398438 120.003906 207.347656 118.605469 L 225.519531 143.847656 C 223.730469 145.136719 221.949219 146.441406 220.1875 147.761719 Z M 636.695312 139.601562 C 634.878906 138.347656 633.046875 137.109375 631.195312 135.890625 L 648.371094 109.957031 C 650.375 111.285156 652.367188 112.628906 654.34375 113.992188 Z M 239.160156 134.496094 L 222.171875 108.441406 C 224.179688 107.132812 226.199219 105.84375 228.230469 104.570312 L 244.730469 130.9375 C 242.859375 132.105469 241.003906 133.292969 239.160156 134.496094 Z M 617.183594 127.066406 C 615.277344 125.929688 613.371094 124.8125 611.449219 123.710938 L 626.910156 96.722656 C 628.996094 97.917969 631.066406 99.132812 633.128906 100.359375 Z M 258.941406 122.488281 L 243.671875 95.390625 C 245.757812 94.214844 247.855469 93.058594 249.96875 91.921875 L 264.722656 119.300781 C 262.785156 120.347656 260.859375 121.410156 258.941406 122.488281 Z M 596.878906 115.8125 C 594.90625 114.804688 592.933594 113.8125 590.941406 112.839844 L 604.605469 84.898438 C 606.769531 85.957031 608.921875 87.035156 611.0625 88.132812 Z M 279.441406 111.800781 L 265.96875 83.765625 C 268.121094 82.730469 270.285156 81.714844 272.460938 80.71875 L 285.421875 108.992188 C 283.417969 109.910156 281.425781 110.84375 279.441406 111.800781 Z M 575.886719 105.90625 C 573.855469 105.027344 571.816406 104.167969 569.769531 103.328125 L 581.582031 74.554688 C 583.808594 75.46875 586.03125 76.40625 588.238281 77.359375 Z M 300.585938 102.46875 L 288.957031 73.621094 C 291.183594 72.722656 293.417969 71.847656 295.664062 70.992188 L 306.75 100.050781 C 304.6875 100.839844 302.632812 101.644531 300.585938 102.46875 Z M 554.277344 97.386719 C 552.195312 96.644531 550.105469 95.917969 548.003906 95.214844 L 557.902344 65.730469 C 560.1875 66.496094 562.476562 67.285156 564.738281 68.097656 Z M 322.34375 94.515625 L 312.625 64.964844 C 314.902344 64.21875 317.191406 63.488281 319.484375 62.78125 L 328.65625 92.5 C 326.542969 93.15625 324.4375 93.828125 322.34375 94.515625 Z M 532.195312 90.3125 C 530.074219 89.707031 527.949219 89.121094 525.820312 88.558594 L 533.777344 58.492188 C 536.109375 59.105469 538.421875 59.742188 540.726562 60.398438 Z M 344.574219 87.996094 L 336.804688 57.878906 C 339.125 57.28125 341.453125 56.703125 343.792969 56.144531 L 351.003906 86.402344 C 348.851562 86.917969 346.707031 87.445312 344.574219 87.996094 Z M 509.726562 84.699219 C 507.570312 84.234375 505.410156 83.792969 503.234375 83.367188 L 509.21875 52.84375 C 511.574219 53.304688 513.925781 53.789062 516.269531 54.292969 Z M 367.179688 82.949219 L 361.394531 52.386719 C 363.746094 51.941406 366.105469 51.519531 368.472656 51.117188 L 373.703125 81.773438 C 371.523438 82.148438 369.347656 82.539062 367.179688 82.949219 Z M 486.914062 80.5625 C 484.734375 80.238281 482.558594 79.9375 480.363281 79.65625 L 484.347656 48.808594 C 486.730469 49.113281 489.113281 49.445312 491.484375 49.796875 Z M 390.074219 79.378906 L 386.285156 48.507812 C 388.664062 48.214844 391.042969 47.945312 393.433594 47.695312 L 396.660156 78.628906 C 394.460938 78.859375 392.265625 79.109375 390.074219 79.378906 Z M 463.902344 77.917969 C 461.707031 77.734375 459.5 77.574219 457.292969 77.433594 L 459.28125 46.394531 C 461.679688 46.546875 464.070312 46.722656 466.457031 46.917969 Z M 413.15625 77.296875 L 411.367188 46.246094 C 413.753906 46.105469 416.148438 45.992188 418.550781 45.894531 L 419.777344 76.972656 C 417.566406 77.0625 415.359375 77.167969 413.15625 77.296875 Z M 440.746094 76.753906 C 438.542969 76.714844 436.332031 76.691406 434.121094 76.691406 L 434.121094 45.589844 C 436.527344 45.589844 438.921875 45.613281 441.316406 45.65625 Z M 440.746094 76.753906 " fill-opacity="1" fill-rule="nonzero"/></g></g></g><g clip-path="url(#id8)"><path fill="#7d8693" d="M 604.296875 562.382812 C 604.296875 563.753906 604.230469 565.125 604.097656 566.488281 C 603.960938 567.855469 603.761719 569.210938 603.492188 570.558594 C 603.226562 571.90625 602.890625 573.234375 602.492188 574.550781 C 602.09375 575.863281 601.632812 577.152344 601.105469 578.421875 C 600.582031 579.691406 599.996094 580.929688 599.347656 582.140625 C 598.703125 583.351562 597.996094 584.527344 597.234375 585.667969 C 596.472656 586.808594 595.652344 587.910156 594.785156 588.972656 C 593.914062 590.035156 592.992188 591.050781 592.019531 592.019531 C 591.050781 592.992188 590.035156 593.914062 588.972656 594.785156 C 587.910156 595.652344 586.8125 596.472656 585.667969 597.234375 C 584.527344 597.996094 583.351562 598.703125 582.140625 599.347656 C 580.929688 599.996094 579.691406 600.582031 578.421875 601.105469 C 577.152344 601.632812 575.863281 602.09375 574.550781 602.492188 C 573.234375 602.890625 571.90625 603.226562 570.558594 603.492188 C 569.210938 603.761719 567.855469 603.960938 566.492188 604.097656 C 565.125 604.230469 563.753906 604.296875 562.382812 604.296875 C 561.007812 604.296875 559.640625 604.230469 558.273438 604.097656 C 556.90625 603.960938 555.550781 603.761719 554.203125 603.492188 C 552.859375 603.226562 551.527344 602.890625 550.214844 602.492188 C 548.902344 602.09375 547.609375 601.632812 546.339844 601.105469 C 545.074219 600.582031 543.832031 599.996094 542.621094 599.347656 C 541.410156 598.703125 540.234375 597.996094 539.09375 597.234375 C 537.953125 596.472656 536.851562 595.652344 535.789062 594.785156 C 534.730469 593.914062 533.714844 592.992188 532.742188 592.019531 C 531.773438 591.050781 530.851562 590.035156 529.980469 588.972656 C 529.109375 587.910156 528.292969 586.808594 527.53125 585.667969 C 526.765625 584.527344 526.0625 583.351562 525.414062 582.140625 C 524.769531 580.929688 524.179688 579.691406 523.65625 578.421875 C 523.132812 577.152344 522.667969 575.863281 522.269531 574.550781 C 521.871094 573.234375 521.539062 571.90625 521.269531 570.558594 C 521.003906 569.210938 520.800781 567.855469 520.667969 566.488281 C 520.53125 565.125 520.464844 563.753906 520.464844 562.382812 C 520.464844 561.007812 520.53125 559.640625 520.667969 558.273438 C 520.800781 556.90625 521.003906 555.550781 521.269531 554.203125 C 521.539062 552.859375 521.871094 551.527344 522.269531 550.214844 C 522.667969 548.902344 523.132812 547.609375 523.65625 546.339844 C 524.179688 545.074219 524.769531 543.832031 525.414062 542.621094 C 526.0625 541.410156 526.765625 540.234375 527.53125 539.09375 C 528.292969 537.953125 529.109375 536.851562 529.980469 535.789062 C 530.851562 534.730469 531.773438 533.714844 532.742188 532.742188 C 533.714844 531.773438 534.730469 530.851562 535.789062 529.980469 C 536.851562 529.109375 537.953125 528.292969 539.09375 527.53125 C 540.234375 526.765625 541.410156 526.0625 542.621094 525.414062 C 543.832031 524.769531 545.074219 524.179688 546.339844 523.65625 C 547.609375 523.132812 548.902344 522.667969 550.214844 522.269531 C 551.527344 521.871094 552.859375 521.539062 554.203125 521.269531 C 555.550781 521.003906 556.90625 520.800781 558.273438 520.667969 C 559.640625 520.53125 561.007812 520.464844 562.382812 520.464844 C 563.753906 520.464844 565.125 520.53125 566.492188 520.667969 C 567.855469 520.800781 569.210938 521.003906 570.558594 521.269531 C 571.90625 521.539062 573.234375 521.871094 574.550781 522.269531 C 575.863281 522.667969 577.152344 523.132812 578.421875 523.65625 C 579.691406 524.179688 580.929688 524.769531 582.140625 525.414062 C 583.351562 526.0625 584.527344 526.765625 585.667969 527.53125 C 586.8125 528.292969 587.910156 529.109375 588.972656 529.980469 C 590.035156 530.851562 591.050781 531.773438 592.019531 532.742188 C 592.992188 533.714844 593.914062 534.730469 594.785156 535.789062 C 595.652344 536.851562 596.472656 537.953125 597.234375 539.09375 C 597.996094 540.234375 598.703125 541.410156 599.347656 542.621094 C 599.996094 543.832031 600.582031 545.074219 601.105469 546.339844 C 601.632812 547.609375 602.09375 548.902344 602.492188 550.214844 C 602.890625 551.527344 603.226562 552.859375 603.492188 554.203125 C 603.761719 555.550781 603.960938 556.90625 604.097656 558.273438 C 604.230469 559.640625 604.296875 561.007812 604.296875 562.382812 Z M 604.296875 562.382812 " fill-opacity="1" fill-rule="nonzero"/><path fill="#ffffff" d="M 562.382812 604.382812 C 551.164062 604.382812 540.617188 600.003906 532.6875 592.074219 C 524.757812 584.144531 520.382812 573.597656 520.382812 562.382812 C 520.382812 551.164062 524.757812 540.617188 532.6875 532.6875 C 540.617188 524.757812 551.164062 520.382812 562.382812 520.382812 C 573.597656 520.382812 584.144531 524.757812 592.074219 532.6875 C 600.003906 540.617188 604.382812 551.164062 604.382812 562.382812 C 604.382812 573.597656 600.003906 584.144531 592.074219 592.074219 C 584.144531 600.003906 573.597656 604.382812 562.382812 604.382812 Z M 562.382812 522.898438 C 551.835938 522.898438 541.925781 527.003906 534.464844 534.464844 C 527.003906 541.925781 522.898438 551.835938 522.898438 562.382812 C 522.898438 572.929688 527.003906 582.835938 534.464844 590.296875 C 541.925781 597.757812 551.835938 601.867188 562.382812 601.867188 C 572.929688 601.867188 582.835938 597.757812 590.296875 590.296875 C 597.757812 582.835938 601.867188 572.929688 601.867188 562.382812 C 601.867188 551.835938 597.757812 541.925781 590.296875 534.464844 C 582.835938 527.003906 572.929688 522.898438 562.382812 522.898438 Z M 562.382812 522.898438 " fill-opacity="1" fill-rule="nonzero"/></g><g fill="#000000" fill-opacity="1"><g transform="translate(785.254997, 165.434889)"><g><path d="M 28.53125 0 L 16.390625 0 L 16.390625 -23.4375 C 16.390625 -26.289062 16.445312 -28.898438 16.5625 -31.265625 C 15.820312 -30.347656 14.894531 -29.394531 13.78125 -28.40625 L 8.75 -24.265625 L 2.546875 -31.890625 L 17.75 -44.28125 L 28.53125 -44.28125 Z M 28.53125 0 "/></g></g></g><g fill="#000000" fill-opacity="1"><g transform="translate(958.26035, 348.434873)"><g><path d="M 33.984375 0 L 1.84375 0 L 1.84375 -7.875 L 12.65625 -18.8125 C 15.75 -22.039062 17.769531 -24.242188 18.71875 -25.421875 C 19.664062 -26.609375 20.328125 -27.625 20.703125 -28.46875 C 21.078125 -29.320312 21.265625 -30.210938 21.265625 -31.140625 C 21.265625 -32.285156 20.890625 -33.191406 20.140625 -33.859375 C 19.390625 -34.523438 18.335938 -34.859375 16.984375 -34.859375 C 15.597656 -34.859375 14.191406 -34.457031 12.765625 -33.65625 C 11.335938 -32.863281 9.726562 -31.691406 7.9375 -30.140625 L 1.359375 -37.828125 C 3.640625 -39.867188 5.554688 -41.328125 7.109375 -42.203125 C 8.671875 -43.085938 10.363281 -43.757812 12.1875 -44.21875 C 14.019531 -44.6875 16.078125 -44.921875 18.359375 -44.921875 C 21.222656 -44.921875 23.78125 -44.414062 26.03125 -43.40625 C 28.28125 -42.394531 30.023438 -40.953125 31.265625 -39.078125 C 32.515625 -37.210938 33.140625 -35.117188 33.140625 -32.796875 C 33.140625 -31.066406 32.921875 -29.460938 32.484375 -27.984375 C 32.046875 -26.515625 31.375 -25.066406 30.46875 -23.640625 C 29.5625 -22.210938 28.351562 -20.710938 26.84375 -19.140625 C 25.34375 -17.566406 22.140625 -14.578125 17.234375 -10.171875 L 17.234375 -9.875 L 33.984375 -9.875 Z M 33.984375 0 "/></g></g></g><g fill="#000000" fill-opacity="1"><g transform="translate(1027.328601, 576.121618)"><g><path d="M 32.5 -34.6875 C 32.5 -31.9375 31.660156 -29.578125 29.984375 -27.609375 C 28.304688 -25.640625 25.882812 -24.210938 22.71875 -23.328125 L 22.71875 -23.140625 C 30.101562 -22.210938 33.796875 -18.71875 33.796875 -12.65625 C 33.796875 -8.539062 32.164062 -5.300781 28.90625 -2.9375 C 25.644531 -0.570312 21.117188 0.609375 15.328125 0.609375 C 12.941406 0.609375 10.734375 0.4375 8.703125 0.09375 C 6.671875 -0.25 4.476562 -0.875 2.125 -1.78125 L 2.125 -11.71875 C 4.0625 -10.726562 6.035156 -9.992188 8.046875 -9.515625 C 10.054688 -9.046875 11.90625 -8.8125 13.59375 -8.8125 C 16.21875 -8.8125 18.128906 -9.179688 19.328125 -9.921875 C 20.535156 -10.660156 21.140625 -11.816406 21.140625 -13.390625 C 21.140625 -14.597656 20.828125 -15.53125 20.203125 -16.1875 C 19.578125 -16.84375 18.566406 -17.335938 17.171875 -17.671875 C 15.773438 -18.003906 13.957031 -18.171875 11.71875 -18.171875 L 9 -18.171875 L 9 -27.171875 L 11.78125 -27.171875 C 17.863281 -27.171875 20.90625 -28.722656 20.90625 -31.828125 C 20.90625 -33.003906 20.453125 -33.875 19.546875 -34.4375 C 18.648438 -35 17.445312 -35.28125 15.9375 -35.28125 C 13.101562 -35.28125 10.171875 -34.332031 7.140625 -32.4375 L 2.1875 -40.4375 C 4.519531 -42.050781 6.910156 -43.203125 9.359375 -43.890625 C 11.816406 -44.578125 14.632812 -44.921875 17.8125 -44.921875 C 22.394531 -44.921875 25.988281 -44.007812 28.59375 -42.1875 C 31.195312 -40.375 32.5 -37.875 32.5 -34.6875 Z M 32.5 -34.6875 "/></g></g></g><g fill="#000000" fill-opacity="1"><g transform="translate(528.026476, 99.059894)"><g><path d="M 28.53125 0 L 16.390625 0 L 16.390625 -23.4375 C 16.390625 -26.289062 16.445312 -28.898438 16.5625 -31.265625 C 15.820312 -30.347656 14.894531 -29.394531 13.78125 -28.40625 L 8.75 -24.265625 L 2.546875 -31.890625 L 17.75 -44.28125 L 28.53125 -44.28125 Z M 28.53125 0 "/></g></g><g transform="translate(564.372838, 99.059894)"><g><path d="M 33.984375 0 L 1.84375 0 L 1.84375 -7.875 L 12.65625 -18.8125 C 15.75 -22.039062 17.769531 -24.242188 18.71875 -25.421875 C 19.664062 -26.609375 20.328125 -27.625 20.703125 -28.46875 C 21.078125 -29.320312 21.265625 -30.210938 21.265625 -31.140625 C 21.265625 -32.285156 20.890625 -33.191406 20.140625 -33.859375 C 19.390625 -34.523438 18.335938 -34.859375 16.984375 -34.859375 C 15.597656 -34.859375 14.191406 -34.457031 12.765625 -33.65625 C 11.335938 -32.863281 9.726562 -31.691406 7.9375 -30.140625 L 1.359375 -37.828125 C 3.640625 -39.867188 5.554688 -41.328125 7.109375 -42.203125 C 8.671875 -43.085938 10.363281 -43.757812 12.1875 -44.21875 C 14.019531 -44.6875 16.078125 -44.921875 18.359375 -44.921875 C 21.222656 -44.921875 23.78125 -44.414062 26.03125 -43.40625 C 28.28125 -42.394531 30.023438 -40.953125 31.265625 -39.078125 C 32.515625 -37.210938 33.140625 -35.117188 33.140625 -32.796875 C 33.140625 -31.066406 32.921875 -29.460938 32.484375 -27.984375 C 32.046875 -26.515625 31.375 -25.066406 30.46875 -23.640625 C 29.5625 -22.210938 28.351562 -20.710938 26.84375 -19.140625 C 25.34375 -17.566406 22.140625 -14.578125 17.234375 -10.171875 L 17.234375 -9.875 L 33.984375 -9.875 Z M 33.984375 0 "/></g></g></g><g fill="#000000" fill-opacity="1"><g transform="translate(284.707529, 165.434889)"><g><path d="M 28.53125 0 L 16.390625 0 L 16.390625 -23.4375 C 16.390625 -26.289062 16.445312 -28.898438 16.5625 -31.265625 C 15.820312 -30.347656 14.894531 -29.394531 13.78125 -28.40625 L 8.75 -24.265625 L 2.546875 -31.890625 L 17.75 -44.28125 L 28.53125 -44.28125 Z M 28.53125 0 "/></g></g><g transform="translate(321.053892, 165.434889)"><g><path d="M 28.53125 0 L 16.390625 0 L 16.390625 -23.4375 C 16.390625 -26.289062 16.445312 -28.898438 16.5625 -31.265625 C 15.820312 -30.347656 14.894531 -29.394531 13.78125 -28.40625 L 8.75 -24.265625 L 2.546875 -31.890625 L 17.75 -44.28125 L 28.53125 -44.28125 Z M 28.53125 0 "/></g></g></g><g fill="#000000" fill-opacity="1"><g transform="translate(105.226641, 341.444639)"><g><path d="M 28.53125 0 L 16.390625 0 L 16.390625 -23.4375 C 16.390625 -26.289062 16.445312 -28.898438 16.5625 -31.265625 C 15.820312 -30.347656 14.894531 -29.394531 13.78125 -28.40625 L 8.75 -24.265625 L 2.546875 -31.890625 L 17.75 -44.28125 L 28.53125 -44.28125 Z M 28.53125 0 "/></g></g><g transform="translate(141.573003, 341.444639)"><g><path d="M 34.171875 -22.078125 C 34.171875 -14.242188 32.859375 -8.503906 30.234375 -4.859375 C 27.609375 -1.210938 23.585938 0.609375 18.171875 0.609375 C 12.878906 0.609375 8.890625 -1.289062 6.203125 -5.09375 C 3.523438 -8.90625 2.1875 -14.566406 2.1875 -22.078125 C 2.1875 -29.953125 3.5 -35.726562 6.125 -39.40625 C 8.75 -43.082031 12.765625 -44.921875 18.171875 -44.921875 C 23.441406 -44.921875 27.425781 -43.003906 30.125 -39.171875 C 32.820312 -35.347656 34.171875 -29.648438 34.171875 -22.078125 Z M 14.078125 -22.078125 C 14.078125 -17.066406 14.390625 -13.625 15.015625 -11.75 C 15.648438 -9.875 16.703125 -8.9375 18.171875 -8.9375 C 19.671875 -8.9375 20.726562 -9.90625 21.34375 -11.84375 C 21.957031 -13.78125 22.265625 -17.191406 22.265625 -22.078125 C 22.265625 -26.984375 21.953125 -30.421875 21.328125 -32.390625 C 20.703125 -34.359375 19.648438 -35.34375 18.171875 -35.34375 C 16.703125 -35.34375 15.648438 -34.394531 15.015625 -32.5 C 14.390625 -30.601562 14.078125 -27.128906 14.078125 -22.078125 Z M 14.078125 -22.078125 "/></g></g></g><g fill="#000000" fill-opacity="1"><g transform="translate(55.012103, 571.004146)"><g><path d="M 34.3125 -24.015625 C 34.3125 -15.359375 32.441406 -9.085938 28.703125 -5.203125 C 24.972656 -1.328125 19 0.609375 10.78125 0.609375 C 8.070312 0.609375 6.015625 0.503906 4.609375 0.296875 L 4.609375 -9.171875 C 6.335938 -8.847656 8.070312 -8.6875 9.8125 -8.6875 C 14.09375 -8.6875 17.394531 -9.570312 19.71875 -11.34375 C 22.039062 -13.113281 23.300781 -15.90625 23.5 -19.71875 L 23.140625 -19.71875 C 22.347656 -18.257812 21.566406 -17.207031 20.796875 -16.5625 C 20.035156 -15.914062 19.097656 -15.421875 17.984375 -15.078125 C 16.878906 -14.734375 15.5 -14.5625 13.84375 -14.5625 C 10.007812 -14.5625 7.007812 -15.84375 4.84375 -18.40625 C 2.6875 -20.976562 1.609375 -24.515625 1.609375 -29.015625 C 1.609375 -33.921875 3.003906 -37.765625 5.796875 -40.546875 C 8.597656 -43.335938 12.429688 -44.734375 17.296875 -44.734375 C 22.703125 -44.734375 26.890625 -42.9375 29.859375 -39.34375 C 32.828125 -35.75 34.3125 -30.640625 34.3125 -24.015625 Z M 17.625 -35.171875 C 16.3125 -35.171875 15.242188 -34.691406 14.421875 -33.734375 C 13.609375 -32.785156 13.203125 -31.265625 13.203125 -29.171875 C 13.203125 -27.515625 13.554688 -26.195312 14.265625 -25.21875 C 14.972656 -24.238281 16.050781 -23.75 17.5 -23.75 C 18.8125 -23.75 19.953125 -24.222656 20.921875 -25.171875 C 21.898438 -26.117188 22.390625 -27.257812 22.390625 -28.59375 C 22.390625 -30.382812 21.9375 -31.925781 21.03125 -33.21875 C 20.132812 -34.519531 19 -35.171875 17.625 -35.171875 Z M 17.625 -35.171875 "/></g></g></g><g fill="#000000" fill-opacity="1"><g transform="translate(130.391116, 824.225988)"><g><path d="M 18.296875 -44.921875 C 22.960938 -44.921875 26.59375 -43.976562 29.1875 -42.09375 C 31.78125 -40.21875 33.078125 -37.554688 33.078125 -34.109375 C 33.078125 -31.765625 32.460938 -29.707031 31.234375 -27.9375 C 30.015625 -26.175781 28.082031 -24.640625 25.4375 -23.328125 C 28.707031 -21.460938 31.015625 -19.609375 32.359375 -17.765625 C 33.703125 -15.921875 34.375 -13.925781 34.375 -11.78125 C 34.375 -7.84375 32.953125 -4.789062 30.109375 -2.625 C 27.265625 -0.46875 23.285156 0.609375 18.171875 0.609375 C 12.960938 0.609375 8.972656 -0.441406 6.203125 -2.546875 C 3.441406 -4.660156 2.0625 -7.695312 2.0625 -11.65625 C 2.0625 -14.226562 2.675781 -16.414062 3.90625 -18.21875 C 5.132812 -20.019531 7.203125 -21.660156 10.109375 -23.140625 C 7.773438 -24.710938 6.066406 -26.398438 4.984375 -28.203125 C 3.898438 -30.015625 3.359375 -32.003906 3.359375 -34.171875 C 3.359375 -37.554688 4.679688 -40.191406 7.328125 -42.078125 C 9.972656 -43.972656 13.628906 -44.921875 18.296875 -44.921875 Z M 13.03125 -12.140625 C 13.03125 -10.890625 13.472656 -9.882812 14.359375 -9.125 C 15.242188 -8.375 16.472656 -8 18.046875 -8 C 21.609375 -8 23.390625 -9.300781 23.390625 -11.90625 C 23.390625 -12.894531 23 -13.867188 22.21875 -14.828125 C 21.4375 -15.785156 20.046875 -16.859375 18.046875 -18.046875 C 16.253906 -17.097656 14.96875 -16.144531 14.1875 -15.1875 C 13.414062 -14.226562 13.03125 -13.210938 13.03125 -12.140625 Z M 18.234375 -36.28125 C 17.203125 -36.28125 16.332031 -35.984375 15.625 -35.390625 C 14.914062 -34.796875 14.5625 -34.023438 14.5625 -33.078125 C 14.5625 -31.335938 15.742188 -29.800781 18.109375 -28.46875 C 19.546875 -29.300781 20.523438 -30.054688 21.046875 -30.734375 C 21.578125 -31.421875 21.84375 -32.203125 21.84375 -33.078125 C 21.84375 -34.046875 21.488281 -34.820312 20.78125 -35.40625 C 20.070312 -35.988281 19.222656 -36.28125 18.234375 -36.28125 Z M 18.234375 -36.28125 "/></g></g></g><g fill="#000000" fill-opacity="1"><g transform="translate(965.224094, 824.225988)"><g><path d="M 35.40625 -8.578125 L 30.53125 -8.578125 L 30.53125 0 L 18.71875 0 L 18.71875 -8.578125 L 1.0625 -8.578125 L 1.0625 -17.359375 L 19.46875 -44.28125 L 30.53125 -44.28125 L 30.53125 -17.5 L 35.40625 -17.5 Z M 18.71875 -17.5 L 18.71875 -22.65625 C 18.71875 -23.625 18.753906 -24.929688 18.828125 -26.578125 C 18.898438 -28.222656 18.953125 -29.085938 18.984375 -29.171875 L 18.65625 -29.171875 C 17.96875 -27.609375 17.191406 -26.15625 16.328125 -24.8125 L 11.421875 -17.5 Z M 18.71875 -17.5 "/></g></g></g><g fill="#000000" fill-opacity="1"><g transform="translate(785.254997, 1007.122149)"><g><path d="M 20.109375 -29.015625 C 22.648438 -29.015625 24.945312 -28.421875 27 -27.234375 C 29.050781 -26.054688 30.644531 -24.382812 31.78125 -22.21875 C 32.925781 -20.0625 33.5 -17.570312 33.5 -14.75 C 33.5 -9.800781 32.007812 -6.003906 29.03125 -3.359375 C 26.050781 -0.710938 21.546875 0.609375 15.515625 0.609375 C 10.335938 0.609375 6.113281 -0.1875 2.84375 -1.78125 L 2.84375 -11.59375 C 4.601562 -10.789062 6.585938 -10.125 8.796875 -9.59375 C 11.003906 -9.070312 12.910156 -8.8125 14.515625 -8.8125 C 16.734375 -8.8125 18.4375 -9.28125 19.625 -10.21875 C 20.820312 -11.15625 21.421875 -12.546875 21.421875 -14.390625 C 21.421875 -16.085938 20.8125 -17.410156 19.59375 -18.359375 C 18.382812 -19.304688 16.546875 -19.78125 14.078125 -19.78125 C 12.203125 -19.78125 10.175781 -19.425781 8 -18.71875 L 3.609375 -20.90625 L 5.265625 -44.28125 L 30.53125 -44.28125 L 30.53125 -34.3125 L 15.453125 -34.3125 L 14.90625 -28.46875 C 16.476562 -28.769531 17.597656 -28.9375 18.265625 -28.96875 C 18.929688 -29 19.546875 -29.015625 20.109375 -29.015625 Z M 20.109375 -29.015625 "/></g></g></g><g fill="#000000" fill-opacity="1"><g transform="translate(306.376902, 1007.488341)"><g><path d="M 6.328125 0 L 21.53125 -34.3125 L 2.359375 -34.3125 L 2.359375 -44.21875 L 34.3125 -44.21875 L 34.3125 -37.171875 L 18.71875 0 Z M 6.328125 0 "/></g></g></g><g fill="#000000" fill-opacity="1"><g transform="translate(544.325714, 1065.271096)"><g><path d="M 2.125 -18.71875 C 2.125 -24.894531 3.003906 -29.894531 4.765625 -33.71875 C 6.535156 -37.550781 9.140625 -40.375 12.578125 -42.1875 C 16.023438 -44.007812 20.273438 -44.921875 25.328125 -44.921875 C 27.117188 -44.921875 29.21875 -44.75 31.625 -44.40625 L 31.625 -35.046875 C 29.601562 -35.429688 27.410156 -35.625 25.046875 -35.625 C 21.046875 -35.625 18.066406 -34.742188 16.109375 -32.984375 C 14.148438 -31.222656 13.082031 -28.351562 12.90625 -24.375 L 13.265625 -24.375 C 15.085938 -27.8125 18.003906 -29.53125 22.015625 -29.53125 C 25.953125 -29.53125 29.003906 -28.257812 31.171875 -25.71875 C 33.347656 -23.1875 34.4375 -19.660156 34.4375 -15.140625 C 34.4375 -10.273438 33.0625 -6.429688 30.3125 -3.609375 C 27.570312 -0.796875 23.738281 0.609375 18.8125 0.609375 C 13.582031 0.609375 9.492188 -1.085938 6.546875 -4.484375 C 3.597656 -7.878906 2.125 -12.625 2.125 -18.71875 Z M 18.53125 -8.875 C 19.800781 -8.875 20.835938 -9.351562 21.640625 -10.3125 C 22.441406 -11.269531 22.84375 -12.800781 22.84375 -14.90625 C 22.84375 -18.5 21.445312 -20.296875 18.65625 -20.296875 C 17.28125 -20.296875 16.164062 -19.828125 15.3125 -18.890625 C 14.457031 -17.960938 14.03125 -16.835938 14.03125 -15.515625 C 14.03125 -13.566406 14.441406 -11.972656 15.265625 -10.734375 C 16.085938 -9.492188 17.175781 -8.875 18.53125 -8.875 Z M 18.53125 -8.875 "/></g></g></g></svg>