<?xml version="1.0" standalone="no"?>
<!DOCTYPE svg PUBLIC "-//W3C//DTD SVG 20010904//EN"
 "http://www.w3.org/TR/2001/REC-SVG-20010904/DTD/svg10.dtd">
<svg version="1.0" xmlns="http://www.w3.org/2000/svg"
 width="1280.000000pt" height="1280.000000pt" viewBox="0 0 1280.000000 1280.000000"
 preserveAspectRatio="xMidYMid meet">
<metadata>
Created by potrace 1.15, written by Peter Selinger 2001-2017
</metadata>
<g transform="translate(0.000000,1280.000000) scale(0.100000,-0.100000)"
fill="#000000" stroke="none">
<path d="M6030 12790 c-244 -15 -580 -57 -805 -101 -109 -21 -118 -23 -310
-69 -1451 -351 -2758 -1217 -3662 -2425 -449 -600 -797 -1303 -1002 -2020
-171 -600 -245 -1138 -246 -1775 0 -338 8 -468 46 -780 120 -983 469 -1931
1014 -2756 323 -489 701 -918 1150 -1305 421 -363 833 -637 1340 -889 307
-153 502 -235 784 -330 529 -177 934 -261 1566 -322 202 -19 817 -16 1050 5
826 77 1510 264 2223 608 1817 876 3090 2516 3491 4494 49 243 81 468 113 800
19 198 16 817 -5 1043 -115 1221 -519 2287 -1231 3242 -327 439 -797 913
-1246 1256 -903 691 -2019 1150 -3120 1284 -343 41 -843 59 -1150 40z m597
-140 c1211 -47 2276 -392 3278 -1063 498 -334 1015 -810 1401 -1292 642 -800
1073 -1764 1255 -2805 69 -398 93 -724 86 -1190 -6 -405 -18 -558 -73 -910
-166 -1057 -612 -2070 -1278 -2900 -210 -262 -552 -616 -801 -829 -758 -649
-1660 -1116 -2585 -1340 -1189 -287 -2411 -230 -3565 166 -317 108 -766 315
-1070 494 -1005 588 -1836 1451 -2395 2489 -631 1170 -864 2507 -669 3835 230
1569 1052 3004 2279 3979 1062 844 2325 1316 3655 1365 110 4 207 8 215 9 8 1
129 -3 267 -8z"/>
<path d="M6329 12545 c-14 -8 -35 -27 -45 -42 -18 -26 -19 -55 -22 -463 -2
-400 -1 -438 15 -469 50 -97 182 -106 247 -18 20 28 21 39 21 465 0 481 -1
485 -60 522 -38 24 -117 26 -156 5z"/>
<path d="M3330 11742 c-47 -23 -80 -75 -80 -125 0 -33 31 -94 181 -361 247
-437 243 -431 285 -451 91 -43 218 52 200 149 -3 18 -100 198 -214 401 -178
315 -213 371 -243 387 -42 23 -84 23 -129 0z"/>
<path d="M9348 11745 c-33 -19 -31 -14 -257 -434 -160 -298 -191 -362 -191
-397 0 -76 71 -144 152 -144 65 0 91 37 281 390 255 476 242 444 213 514 -28
68 -135 107 -198 71z"/>
<path d="M6705 11084 c-11 -3 -50 -14 -87 -25 l-68 -20 0 -49 c0 -28 2 -50 4
-50 2 0 30 12 62 26 69 31 157 41 206 25 94 -31 119 -138 54 -229 -14 -20 -94
-107 -176 -194 -143 -149 -150 -158 -150 -197 l0 -41 235 0 235 0 0 40 0 40
-176 0 -176 0 145 151 c169 176 201 226 201 314 -1 90 -44 155 -127 190 -40
16 -147 28 -182 19z"/>
<path d="M6011 11054 c-36 -8 -67 -16 -69 -19 -3 -2 -5 -23 -6 -45 -1 -46 -2
-46 94 -25 36 8 70 14 75 15 6 0 9 -99 8 -282 l-2 -283 -81 -3 -80 -3 0 -39 0
-40 215 0 215 0 0 40 0 39 -82 3 -83 3 0 328 0 327 -70 -1 c-38 -1 -99 -7
-134 -15z"/>
<path d="M4073 10374 c-17 -17 -24 -33 -21 -48 3 -13 226 -405 496 -872 270
-467 744 -1288 1055 -1824 l563 -975 -27 -35 c-52 -66 -73 -127 -73 -215 0
-65 5 -91 26 -137 34 -73 112 -152 186 -186 49 -23 70 -27 147 -27 78 0 99 4
152 29 73 33 147 107 182 179 29 60 38 157 21 226 -27 112 -139 229 -245 255
l-45 12 -3 1422 c-2 1334 -3 1422 -19 1439 -23 22 -83 22 -106 0 -16 -17 -17
-105 -20 -1442 l-2 -1425 -26 -6 c-14 -4 -29 -3 -34 2 -5 5 -479 824 -1054
1819 -576 996 -1054 1816 -1063 1823 -27 19 -62 14 -90 -14z"/>
<path d="M1095 9519 c-63 -56 -71 -150 -17 -201 15 -15 194 -119 398 -232 331
-184 376 -206 417 -206 97 0 167 113 126 204 -16 34 -29 42 -439 269 -320 177
-360 197 -402 197 -39 0 -54 -6 -83 -31z"/>
<path d="M11254 9354 c-181 -108 -348 -207 -371 -221 -24 -13 -54 -38 -68 -55
-52 -62 -19 -181 61 -214 43 -18 68 -18 107 2 105 54 727 431 749 455 54 57
49 130 -12 191 -33 34 -43 38 -87 38 -47 0 -70 -12 -379 -196z"/>
<path d="M10755 6823 c-98 -22 -95 -20 -95 -68 l0 -44 48 14 c72 20 137 27
190 19 101 -15 147 -115 85 -184 -22 -23 -42 -33 -87 -41 -33 -6 -75 -9 -93
-7 -33 4 -33 4 -33 -39 l0 -43 73 0 c85 0 131 -19 164 -69 45 -66 18 -156 -57
-193 -50 -26 -183 -24 -252 2 -29 11 -54 20 -56 20 -2 0 -2 -21 0 -47 l3 -48
70 -18 c143 -37 309 -4 367 74 69 92 63 209 -13 279 -18 16 -46 32 -63 36
l-30 7 47 23 c63 32 91 86 85 161 -7 80 -60 139 -147 163 -36 10 -168 12 -206
3z"/>
<path d="M1800 6784 c-46 -20 -87 -59 -113 -109 -17 -32 -22 -57 -22 -125 0
-98 19 -145 79 -198 79 -69 220 -70 296 0 18 16 33 28 35 26 8 -10 -28 -137
-49 -173 -46 -77 -160 -107 -266 -70 -23 8 -44 15 -46 15 -2 0 -4 -20 -4 -45
0 -44 1 -44 43 -56 23 -7 76 -13 117 -13 62 0 84 5 126 27 112 58 165 159 172
330 9 212 -45 343 -160 391 -48 20 -162 20 -208 0z m187 -84 c45 -27 66 -72
66 -145 0 -112 -52 -175 -143 -175 -27 0 -58 8 -77 20 -86 52 -96 209 -18 287
29 29 39 33 87 33 35 0 64 -7 85 -20z"/>
<path d="M300 6517 c-49 -32 -61 -62 -57 -131 3 -53 7 -62 40 -92 l37 -34 446
0 c432 0 448 1 480 20 42 26 69 93 60 145 -4 20 -22 53 -41 73 l-33 37 -449 3
-449 3 -34 -24z"/>
<path d="M11553 6520 c-87 -52 -82 -202 7 -247 19 -10 134 -13 470 -13 336 0
451 3 470 13 89 45 94 195 7 247 -30 19 -53 20 -477 20 -424 0 -447 -1 -477
-20z"/>
<path d="M1825 3931 c-98 -47 -740 -439 -757 -461 -30 -41 -34 -92 -9 -144 28
-56 63 -80 121 -80 41 0 80 21 415 221 204 122 381 233 395 248 33 35 35 119
4 161 -49 67 -106 85 -169 55z"/>
<path d="M10872 3900 c-51 -32 -74 -76 -69 -137 2 -33 11 -60 22 -73 11 -12
185 -116 389 -232 314 -180 376 -211 412 -212 70 -2 133 58 141 135 9 81 -2
89 -416 326 -403 230 -413 233 -479 193z"/>
<path d="M6430 2371 c-46 -14 -85 -39 -121 -78 -71 -74 -99 -160 -99 -308 0
-174 46 -288 139 -343 40 -23 57 -27 127 -27 72 0 86 3 130 30 69 43 105 106
111 192 9 122 -34 211 -123 254 -90 43 -223 22 -268 -43 l-16 -22 0 30 c0 47
29 135 56 172 14 17 39 40 57 49 42 22 158 22 210 0 l38 -16 -3 47 c-3 45 -4
47 -43 58 -45 14 -157 16 -195 5z m119 -360 c52 -37 66 -68 66 -144 -1 -123
-52 -182 -153 -174 -88 6 -132 63 -132 172 0 68 13 107 48 138 43 39 123 43
171 8z"/>
<path d="M8946 2011 c-41 -27 -67 -73 -68 -120 0 -34 31 -96 212 -418 116
-208 225 -390 241 -405 56 -53 163 -30 209 44 40 66 36 75 -195 488 -121 216
-228 395 -243 407 -35 30 -114 31 -156 4z"/>
<path d="M3750 1992 c-30 -14 -70 -74 -267 -392 -209 -337 -232 -379 -233
-418 0 -57 25 -98 75 -122 50 -24 86 -25 131 -4 36 17 38 19 363 548 153 248
160 269 121 333 -22 37 -86 73 -127 73 -15 0 -44 -8 -63 -18z"/>
<path d="M6370 1313 c-42 -8 -88 -50 -100 -91 -6 -23 -10 -197 -10 -455 0
-452 1 -463 54 -504 61 -48 163 -33 209 31 22 31 22 31 22 481 0 425 -1 452
-19 478 -30 45 -98 71 -156 60z"/>
</g>
</svg>
